<svg xmlns="http://www.w3.org/2000/svg" viewBox="0 0 64 64">
  <defs>
    <linearGradient id="g" x1="0" y1="0" x2="1" y2="1">
      <stop offset="0%" stop-color="#4F8EF7"/>
      <stop offset="100%" stop-color="#7C3AED"/>
    </linearGradient>
  </defs>
  <rect width="64" height="64" rx="14" fill="#0a0a0a"/>
  <path d="M42 22c-2.4-2.5-5.6-3.8-9.2-3.8-6.2 0-10.4 3.3-10.4 8 0 4 3 6.1 9 7.3l2.6.5c3.1.6 4.4 1.4 4.4 2.9 0 1.8-1.8 3-5 3-3.1 0-5.3-1.1-7-3.3l-4.5 3.1c2.3 3.3 6.2 5.3 11.3 5.3 6.8 0 11.1-3.3 11.1-8.4 0-4.1-2.8-6.2-9.1-7.5l-2.6-.5c-2.9-.6-4.3-1.3-4.3-2.8 0-1.8 1.8-2.9 4.8-2.9 2.7 0 4.8.9 6.3 2.6z" fill="url(#g)"/>
</svg>
